# xmcd
#
# Track frame offsets:
# 150
# 13260
# 25528
# 44276
# 56730
# 69208
# 81742
# 92668
# 104144
# 115900
# 128773
# 147588
# 159478
# 172363
# 181990
# 195515
# 208138
# 218533
# 230505
# 244701
#
# Disc length: 3420 seconds
#
#
# Revision: 0
# Processed by: cddbd v1.5.1PL2 Copyright (c) Steve Scherf et al.
# Submitted via: FreeRIP 2.944 
#
DISCID=250d5a14
DTITLE=Gene Watson - Because You Believed In Me/Beautiful Country
DYEAR=2005
DGENRE=Country
TTITLE0=Because You Believed In Me
TTITLE1=If I'm A Fool For Leaving
TTITLE2=Bitter They Are Harder They Fall
TTITLE3=When My World Left Town
TTITLE4=Sorry Willie
TTITLE5=How Good A Bad Woman Feels
TTITLE6=Her Body Couldn't Keep You Off My Mind
TTITLE7=I Fell Apart
TTITLE8=Hey Louella
TTITLE9=And Then You Came Along
TTITLE10=The Old Man And His Horn
TTITLE11=Cowboy's Don't Get Lucky A The Time
TTITLE12=I Won't Be Sleeping Alone
TTITLE13=Hey Barnum And Bailey
TTITLE14=I'd Love To Live With You Again
TTITLE15=I Don't Need A Thing At All
TTITLE16=Rainin In Dallas
TTITLE17=It Don't Hurt Me Half As Bad
TTITLE18=I Knew We Could Never Love For Long
TTITLE19=He Little Thinged Her Out Of My ARms
EXTD=Hux Records 072
EXTT0=
EXTT1=
EXTT2=
EXTT3=
EXTT4=
EXTT5=
EXTT6=
EXTT7=
EXTT8=
EXTT9=
EXTT10=
EXTT11=
EXTT12=
EXTT13=
EXTT14=
EXTT15=
EXTT16=
EXTT17=
EXTT18=
EXTT19=
PLAYORDER=
